<?xml version="1.0" encoding="utf-8"?>
<!-- Generator: Adobe Illustrator 16.0.0, SVG Export Plug-In . SVG Version: 6.00 Build 0)  -->
<!DOCTYPE svg PUBLIC "-//W3C//DTD SVG 1.1//EN" "http://www.w3.org/Graphics/SVG/1.1/DTD/svg11.dtd">
<svg version="1.1" id="Capa_1" xmlns="http://www.w3.org/2000/svg" xmlns:xlink="http://www.w3.org/1999/xlink" x="0px" y="0px"
	 width="500px" height="500px" viewBox="0 0 500 500" enable-background="new 0 0 500 500" xml:space="preserve">
<g>
	<path fill="#3874BA" d="M43.984,53.792c130.71-51.115,278.868-49.306,410.314-1.728c0.74,40.824,0.571,81.817,0.248,122.726
		c-105.355-26.75-216.641-42.887-323.978-17.615c0.168-13.581,0.415-27.165,0.747-40.662
		c93.502-21.978,190.792-13.168,283.637,7.904c0.08-14.654,0.168-29.227,0.247-43.793c-107.165-34.322-224.62-34.488-331.79-0.166
		c0.087,44.863-0.244,89.72,0.495,134.664c120.997-28.894,248.824-27.496,368.169,8.396
		c-16.706,116.218-104.285,205.938-201.325,263.8C177.9,445.257,110.821,388.464,71.15,312.984
		c84.447-33.09,177.459-35.723,266.272-22.883c-5.932,12.35-12.022,24.612-18.112,36.875
		c-62.141-3.785-125.188-4.281-186.099,10.293c29.217,39.012,65.848,72.592,107.578,97.697c9.299,7.242,19.591-1.232,27.572-6.092
		c63.13-42.391,113.753-103.794,138.445-176.145c-116.634-30.864-240.758-21.895-355.827,11.44
		C39.539,194.622,45.795,123.919,43.984,53.792z"/>
</g>
<path fill="#E84B3D" d="M268.018,360.633c0.021,0.008,0.063,0.024,0.09,0.031C268.08,360.657,268.038,360.641,268.018,360.633z"/>
<path fill="#E84B3D" d="M260.62,361.534c0.016,0.016,0.029,0.051,0.042,0.065C260.651,361.585,260.636,361.55,260.62,361.534z"/>
<path fill="#E84B3D" d="M239.675,364.945c0.012,0.019,0.026,0.055,0.036,0.072C239.701,365,239.687,364.964,239.675,364.945z"/>
<path fill="#E84B3D" d="M274.801,366.768c0.01,0.021,0.029,0.063,0.037,0.082C274.83,366.829,274.811,366.787,274.801,366.768z"/>
<path fill="#E84B3D" d="M256.925,367.77c0.02-0.012,0.054-0.031,0.068-0.039C256.979,367.738,256.944,367.758,256.925,367.77z"/>
<path fill="#E84B3D" d="M234.746,370.831c0.021-0.011,0.063-0.022,0.086-0.031C234.81,370.809,234.768,370.82,234.746,370.831z"/>
<path fill="#E84B3D" d="M255.707,370.824c0.02-0.01,0.052-0.032,0.068-0.045C255.759,370.792,255.727,370.814,255.707,370.824z"/>
<path fill="#E84B3D" d="M270.771,371.121c0.021,0.012,0.056,0.036,0.07,0.049C270.825,371.157,270.791,371.133,270.771,371.121z"/>
<path fill="#E84B3D" d="M271.675,371.718c0.021,0.017,0.063,0.04,0.082,0.052C271.737,371.758,271.696,371.734,271.675,371.718z"/>
<path fill="#E84B3D" d="M246.48,375.094c0.008,0.022,0.03,0.064,0.04,0.086C246.51,375.158,246.488,375.116,246.48,375.094z"/>
<path fill="#E84B3D" d="M228.894,375.469c0.015-0.02,0.038-0.054,0.05-0.072C228.932,375.415,228.907,375.449,228.894,375.469z"/>
<path fill="#E84B3D" d="M271.423,377.529c0.009,0.021,0.028,0.063,0.038,0.089C271.451,377.596,271.432,377.551,271.423,377.529z"/>
<path fill="#E84B3D" d="M227.348,378.168l0.262-0.016c-0.075,0.138-0.231,0.404-0.312,0.539
	C227.312,378.563,227.337,378.298,227.348,378.168z"/>
<path fill="#E84B3D" d="M284.323,378.157c0.021,0.032,0.066,0.095,0.089,0.126C284.39,378.252,284.344,378.189,284.323,378.157z"/>
<path fill="#E84B3D" d="M253.539,385.896c0.011,0.019,0.03,0.053,0.046,0.069C253.571,385.948,253.55,385.914,253.539,385.896z"/>
<path fill="#E84B3D" d="M271.741,385.951c0.012-0.018,0.025-0.063,0.031-0.083C271.769,385.889,271.753,385.934,271.741,385.951z"/>
<path fill="#E84B3D" d="M227.977,388.334c0.012,0.02,0.033,0.055,0.046,0.068C228.01,388.389,227.989,388.354,227.977,388.334z"/>
<path fill="#E84B3D" d="M221.841,390.869c0.008-0.02,0.021-0.069,0.032-0.088C221.864,390.8,221.849,390.852,221.841,390.869z"/>
<path fill="#E84B3D" d="M253.531,390.814c0.022,0.009,0.064,0.022,0.09,0.031C253.596,390.839,253.554,390.823,253.531,390.814z"/>
<path fill="#E84B3D" d="M232.271,391.757c0.021,0.009,0.063,0.021,0.086,0.033C232.334,391.777,232.292,391.766,232.271,391.757z"/>
<path fill="#E84B3D" d="M258.484,394.175c0.016,0.017,0.037,0.048,0.05,0.065C258.521,394.223,258.498,394.189,258.484,394.175z"/>
<path fill="#E84B3D" d="M272.627,394.223c0.02-0.009,0.067-0.023,0.088-0.035C272.696,394.197,272.646,394.214,272.627,394.223z"/>
<path fill="#E84B3D" d="M239.357,396.648l0.263-0.004c-0.076,0.133-0.233,0.395-0.313,0.526
	C239.322,397.043,239.344,396.777,239.357,396.648z"/>
<path fill="#E84B3D" d="M260.025,396.958c0.005,0.021,0.021,0.06,0.028,0.081C260.044,397.018,260.03,396.979,260.025,396.958z"/>
<path fill="#E84B3D" d="M262.787,403.507c0.01-0.022,0.026-0.062,0.034-0.081C262.815,403.445,262.797,403.484,262.787,403.507z"/>
<path fill="#E84B3D" d="M236.005,405.259c0.007,0.023,0.024,0.064,0.031,0.087C236.031,405.323,236.012,405.282,236.005,405.259z"/>
<path fill="#E84B3D" d="M236.32,406.186c0.008,0.021,0.022,0.065,0.028,0.09C236.342,406.251,236.326,406.207,236.32,406.186z"/>
<path fill="#E84B3D" d="M276.029,408.133c0.01-0.02,0.034-0.054,0.049-0.074C276.063,408.079,276.037,408.113,276.029,408.133z"/>
<path fill="#E84B3D" d="M255.997,408.744c0.02-0.016,0.054-0.036,0.071-0.049C256.051,408.708,256.017,408.729,255.997,408.744z"/>
<path fill="#E84B3D" d="M244.909,409.609c0.021,0.01,0.062,0.029,0.084,0.037C244.971,409.639,244.932,409.619,244.909,409.609z"/>
<path fill="#E84B3D" d="M253.535,409.939c0.019-0.008,0.061-0.022,0.081-0.027C253.596,409.917,253.554,409.934,253.535,409.939z"/>
<path fill="#E84B3D" d="M270.169,413.337c0.021-0.01,0.059-0.028,0.08-0.038C270.228,413.309,270.191,413.327,270.169,413.337z"/>
<path fill="#E84B3D" d="M266.765,418.582c0.025-0.016,0.071-0.046,0.098-0.059C266.836,418.536,266.79,418.566,266.765,418.582z"/>
<path fill="#E84B3D" d="M244.925,422.953c0.131,0.08,0.39,0.24,0.52,0.315c-0.13-0.012-0.391-0.038-0.522-0.054L244.925,422.953z"/>
<g>
	<g>
		<path fill="none" d="M257.532,332.621c2.558-1.188,5.396-1.498,8.158-1.904c0.949-0.186,1.863,0.219,2.797,0.293
			c0.74,0.014,1.479-0.082,2.224-0.002c1.476,0.119,2.804,0.854,4.239,1.16c0.979,0.262,2.001,0.249,2.979,0.5
			c1.036,0.268,1.778,1.215,2.884,1.289c0.843,0.098,1.593,0.508,2.323,0.904c0.126,1.037,0.063,2.078,0.068,3.117
			c0.194,0.912,0.684,1.838,0.352,2.787c-0.729,2.31-1.229,4.704-2.268,6.901c-1.577,3.082-3.513,6.119-6.399,8.13
			c-0.894,1.096-1.99,2.01-3.388,2.38c2.563,1.65,5.036,3.628,6.5,6.367c1.008,1.865,1.716,3.968,1.594,6.108
			c-0.044,1.185-0.05,2.541,0.907,3.408c1.386,1.254,2.797,2.508,3.817,4.094c0.021,0.033,0.066,0.096,0.089,0.127
			c1.049,1.617,1.859,3.414,2.246,5.313c0.269,2.129,0.31,4.313-0.037,6.434c-0.684,2.467-2.37,4.471-3.38,6.791
			c-2.075,4.572-2.085,10.037-5.386,14.045c-2.779,3.672-7.227,5.271-10.993,7.656c-0.024,0.015-0.07,0.045-0.098,0.061
			c-4.403,2.768-8.598,6.055-13.619,7.651c-2.867,0.732-5.876,0.561-8.736-0.099c-0.813-0.377-1.634-0.717-2.438-1.104
			c-0.042-0.022-0.125-0.066-0.166-0.088c-2.008-1.145-3.661-2.806-5.693-3.905c-0.033-0.023-0.105-0.065-0.14-0.094
			c-0.457-0.287-0.921-0.562-1.39-0.823c-0.041-0.023-0.117-0.066-0.154-0.093c-1.974-1.149-4.01-2.188-6.007-3.295
			c-0.037-0.021-0.114-0.066-0.156-0.092c-3.59-2.054-7.117-4.638-9.001-8.433c-1.422-2.608-1.362-5.696-2.593-8.371
			c-0.018-0.04-0.049-0.121-0.065-0.162c-1.402-3.577-3.69-6.808-4.564-10.59c-0.949-5.288,1.264-11.046,5.539-14.306
			c0.441-0.396,0.934-0.773,1.198-1.319c0.215-1.013,0.166-2.065,0.306-3.097c0.206-2.305,0.964-4.541,2.125-6.533
			c0.023-0.037,0.07-0.114,0.097-0.148c1.458-2.349,3.679-4.045,6.007-5.466c-1.914-0.487-3.083-2.147-4.539-3.335
			c-2.108-1.771-3.607-4.136-4.931-6.523c-1.351-2.361-1.75-5.092-2.578-7.649c-0.362-0.916,0.153-1.813,0.36-2.693
			c0.032-1.021-0.485-2.206,0.236-3.096c0.869-1.062,2.458-0.62,3.461-1.437c1.106-0.844,2.531-1,3.862-1.195
			c2.12-0.229,4.021-1.553,6.208-1.328c1.245,0.238,2.45-0.495,3.686-0.116c1.115,0.252,2.229,0.552,3.377,0.574
			c2.281,0.101,4.457,0.95,6.437,2.042c1.377,0.788,2.776,1.609,3.831,2.814c0.028,0.035,0.086,0.104,0.113,0.14
			c0.398,0.543,0.753,1.116,1.096,1.694c0.025,0.056,0.081,0.154,0.107,0.201c0.294,0.643,0.569,1.293,0.854,1.938
			c0.019,0.043,0.055,0.13,0.074,0.177c0.118,0.282,0.363,0.857,0.487,1.146c0.544-1.322,0.947-2.715,1.75-3.914
			C252.684,335.333,255.047,333.727,257.532,332.621z M232.572,333.116c0.163,0.528,0.345,1.057,0.516,1.587
			c-1.384-0.28-2.608-1.133-4.025-1.305c0.076,0.537,0.327,1.019,0.593,1.482c-1.319-0.227-2.597-0.682-3.929-0.846
			c0.173,0.488,0.331,0.979,0.48,1.473c-1.585-0.365-3.189-0.685-4.829-0.497c0.184,0.472,0.425,0.919,0.661,1.367
			c-1.313-0.022-2.623,0-3.937-0.035c0.324,1.261,1.073,2.375,1.574,3.574c-0.661-0.013-1.325-0.004-1.987,0.028
			c0.549,1.14,1.589,1.908,2.427,2.824c-0.011,0.069-0.033,0.211-0.045,0.281c-0.595,0.076-1.196,0.104-1.763,0.314
			c0.958,0.962,1.97,1.89,2.812,2.963c-0.519,0.053-1.037,0.1-1.551,0.152c0.863,1.172,2.248,1.828,3.163,2.963
			c-0.599,0.015-1.193,0.019-1.792,0.057c1.249,1.188,2.957,1.766,4.235,2.921c-0.489,0.104-0.976,0.228-1.371,0.539
			c1.291,0.438,2.493,1.181,3.854,1.362c0.188,0.521-0.519,0.832-0.319,1.34c1.411,0.126,2.799,0.484,4.219,0.492
			c-0.203,0.412-0.386,0.838-0.557,1.271c1.513-0.217,3.063,0.151,4.559-0.259c2.554-0.448,5.042-1.821,6.519-3.979
			c0.729-0.973,0.509-2.34-0.423-3.096c-4.033-3.564-8.74-6.24-13.287-9.087l0.099-0.221c4.761,1.819,9.332,4.179,13.467,7.17
			c0.733,0.585,1.501,1.133,2.311,1.618c2.303-0.725,3.686-3.363,3.135-5.689c-0.409-2.996-2.207-5.568-4.188-7.763
			c-0.207,0.435-0.411,0.868-0.615,1.301c-1.132-0.985-1.925-2.401-3.23-3.144c-0.032,0.576-0.045,1.149-0.049,1.727
			c-0.979-0.684-1.802-1.563-2.768-2.244c-0.356,0.358-0.284,0.903-0.324,1.362C234.895,334.652,233.84,333.68,232.572,333.116z
			 M262.957,335.131c-0.056-0.492-0.146-0.98-0.317-1.443c-0.893,0.67-1.79,1.348-2.572,2.149c-0.602-0.321-0.256-1.56-1.013-1.474
			c-0.893,0.959-1.629,2.05-2.464,3.063c-0.246-0.421-0.488-0.853-0.856-1.18c-2.553,2.211-3.851,5.563-4.114,8.863
			c0.1,1.666,0.938,3.396,2.421,4.242c1.561,0.418,2.554-1.027,3.681-1.81c4.101-2.815,8.566-5.136,13.255-6.806
			c-0.193,0.346-0.586,0.482-0.901,0.684c-3.395,1.919-6.856,3.782-9.813,6.352c-1.166,1.033-2.842,1.561-3.577,3.025
			c-0.456,1.328,0.438,2.657,1.329,3.577c2.193,1.974,5.083,3.151,8.032,3.286c0.66-0.037,1.446,0.077,1.946-0.463
			c-0.251-0.326-0.457-0.682-0.616-1.061c1.5,0.075,2.947-0.387,4.441-0.425c0.132-0.508-0.4-0.87-0.349-1.366
			c1.252-0.306,2.534-0.729,3.617-1.436c-0.338-0.191-0.684-0.376-1.021-0.561c1.21-1.153,2.927-1.662,4.079-2.871
			c-0.556-0.019-1.106-0.021-1.661-0.043c0.883-1.158,2.236-1.846,3.137-2.985c-0.556-0.05-1.106-0.081-1.655-0.112
			c0.867-1.105,2.063-1.953,2.799-3.152c-0.645-0.045-1.286-0.09-1.924-0.15c0.82-1.104,1.936-1.96,2.691-3.114
			c-0.699-0.021-1.397-0.011-2.095,0.003c0.411-1.256,1.312-2.328,1.598-3.613c-1.303,0.045-2.601,0.006-3.896,0.041
			c0.202-0.457,0.423-0.912,0.652-1.359c-1.713-0.102-3.438,0.031-5.061,0.637c0.224-0.521,0.359-1.064,0.426-1.624
			c-1.229,0.282-2.451,0.597-3.683,0.86c0.312-0.551,0.594-1.116,0.819-1.708c-1.453,0.519-2.917,1.012-4.357,1.565
			c0.239-0.592,0.5-1.177,0.74-1.762C265.354,333.545,264.269,334.551,262.957,335.131z M240.11,361.98
			c-0.717,0.799-0.719,1.985-0.435,2.965c0.012,0.019,0.026,0.055,0.036,0.072c1.232,2.154,3.637,3.355,5.984,3.877
			c3.729,0.76,7.807,0.689,11.229-1.125c0.02-0.014,0.054-0.031,0.068-0.039c1.268-0.731,2.435-1.963,2.419-3.514
			c-0.084-2.189-1.928-3.751-3.642-4.836C250.851,356.281,243.726,357.376,240.11,361.98z M232.316,359.477
			c-5.145,0.732-9.453,5.137-10.186,10.268c-0.11,1.107-0.463,2.509,0.47,3.369c0.612,0.146,1.156-0.271,1.679-0.514
			c4.969-2.824,9.339-6.668,12.89-11.134c0.396-0.481,0.92-1.362,0.055-1.665C235.667,359.273,233.937,359.122,232.316,359.477z
			 M260.145,360.295c0.083,0.438,0.239,0.859,0.478,1.239c0.016,0.016,0.029,0.051,0.042,0.065c2.807,3.705,6.29,6.883,10.107,9.521
			c0.021,0.012,0.056,0.036,0.07,0.049c0.213,0.138,0.627,0.412,0.833,0.55c0.021,0.016,0.063,0.038,0.082,0.051
			c1.018,0.635,2.016,1.362,3.188,1.688c0.808-0.182,1.025-1.146,0.964-1.859c-0.087-1.621-0.412-3.25-1.068-4.748
			c-0.008-0.021-0.027-0.063-0.037-0.08c-1.23-2.875-3.745-5.111-6.693-6.104c-0.025-0.007-0.067-0.022-0.09-0.03
			c-1.229-0.394-2.511-0.679-3.797-0.748C262.854,359.941,261.414,359.652,260.145,360.295z M255.777,370.779
			c-0.019,0.013-0.051,0.035-0.068,0.045c-2.804,1.627-4.313,4.974-4.146,8.146c-0.158,2.447,0.687,4.869,1.978,6.926
			c0.011,0.019,0.03,0.053,0.046,0.069c2.508,3.968,7.475,6.773,12.198,5.573c2.799-0.659,5.063-2.881,5.958-5.589
			c0.012-0.019,0.025-0.063,0.031-0.083c0.892-2.67,0.72-5.646-0.313-8.25c-0.01-0.021-0.029-0.067-0.038-0.09
			c-1.529-3.819-4.991-6.875-9.046-7.719C260.152,369.477,257.744,369.586,255.777,370.779z M234.832,370.8
			c-0.022,0.009-0.064,0.021-0.086,0.031c-2.354,0.866-4.358,2.528-5.803,4.563c-0.013,0.021-0.035,0.055-0.05,0.072
			c-0.471,0.854-1.265,1.684-1.284,2.686l-0.262,0.016c-0.011,0.13-0.036,0.395-0.05,0.523c-0.313,0.557-0.404,1.194-0.556,1.807
			c-0.391,2.645-0.289,5.542,1.233,7.836c0.013,0.02,0.033,0.055,0.046,0.068c1.005,1.539,2.509,2.75,4.247,3.354
			c0.021,0.01,0.063,0.021,0.086,0.033c2.731,0.886,5.858,0.596,8.348-0.87c5.341-2.946,8.192-10.021,5.815-15.739
			c-0.01-0.021-0.031-0.063-0.04-0.087c-0.899-2.043-2.646-3.704-4.764-4.432C239.489,369.859,237.038,369.996,234.832,370.8z
			 M276,376.313c-0.66,0.467-0.956,1.287-1.05,2.063c-0.364,1.935-0.264,3.92-0.028,5.864c0.128,2.738,0.748,5.471,1.844,7.988
			c0.408,0.863,0.828,1.836,1.718,2.299c0.747,0.488,1.513-0.266,1.993-0.785c1.794-2.225,2.735-5.124,2.591-7.977
			c-0.037-3.601-2.127-6.895-4.843-9.129C277.629,376.088,276.72,375.859,276,376.313z M219.668,376.939
			c-2.196,1.608-3.859,3.965-4.529,6.611c-0.945,3.789-0.06,8.135,2.714,10.969c0.416,0.491,1.063,0.513,1.657,0.488
			c1.238-1.066,1.783-2.65,2.331-4.141c0.008-0.02,0.021-0.069,0.032-0.09c1.143-3.394,1.339-7.022,1.315-10.576
			c-0.075-1.501-0.27-3.604-2.109-3.91C220.59,376.46,220.084,376.624,219.668,376.939z M240.497,394.677
			c-0.328,0.625-0.962,1.224-0.879,1.968l-0.263,0.004c-0.013,0.129-0.035,0.396-0.052,0.524
			c-1.869,4.783,0.923,10.532,5.604,12.438c0.021,0.009,0.062,0.027,0.084,0.035c2.683,1.168,5.78,1.267,8.542,0.293
			c0.019-0.006,0.061-0.021,0.08-0.026c0.838-0.293,1.638-0.69,2.382-1.168c0.02-0.017,0.054-0.036,0.071-0.048
			c1.252-0.838,2.336-1.942,3.115-3.236c1.553-2.479,1.74-5.673,0.868-8.421c-0.01-0.021-0.023-0.062-0.028-0.081
			c-0.346-0.98-0.85-1.902-1.493-2.718c-0.011-0.019-0.032-0.05-0.048-0.065c-1.25-1.552-2.985-2.688-4.863-3.328
			c-0.023-0.008-0.065-0.021-0.09-0.031C248.973,389.239,243.307,390.609,240.497,394.677z M272.627,394.223
			c-4.321,1.596-7.952,4.979-9.804,9.203c-0.01,0.02-0.026,0.059-0.036,0.081c-0.928,2.278-1.537,4.743-1.361,7.218
			c0.002,1.582,0.974,3.146,2.562,3.543c2.087,0.424,4.267-0.07,6.184-0.931c0.021-0.01,0.059-0.028,0.08-0.038
			c2.37-1.115,4.391-2.949,5.778-5.166c0.01-0.02,0.034-0.054,0.049-0.074c1.388-2.235,2.133-4.887,1.979-7.523
			c0.086-1.864-0.229-3.877-1.416-5.376c-0.912-1.147-2.584-1.552-3.925-0.972C272.696,394.197,272.646,394.214,272.627,394.223z
			 M220.845,398.387c-1.633,7.051,3.813,14.872,11.022,15.701c1.021-0.018,2.128,0.18,3.046-0.389
			c1.054-0.463,1.598-1.584,1.854-2.646c0.071-1.604,0.133-3.246-0.421-4.779c-0.006-0.021-0.021-0.065-0.028-0.088
			c-0.069-0.209-0.213-0.629-0.282-0.84c-0.007-0.021-0.024-0.063-0.031-0.088c-1.241-3.322-3.613-6.191-6.604-8.086
			c-1.735-1.031-3.773-2.035-5.846-1.622C222.128,395.749,221.191,397.084,220.845,398.387z M244.203,414.177
			c-1.592,0.399-3.151,0.98-4.544,1.851c-0.695,0.416-1.225,1.24-0.993,2.07c1.101,2.021,2.985,3.496,5.019,4.503
			c0.398,0.146,0.78,0.508,1.241,0.354l-0.004,0.264c0.133,0.016,0.394,0.042,0.522,0.056c5.146,1.813,11.337-0.462,14.313-4.988
			c0.812-1.05-0.044-2.468-1.104-2.931C254.204,413.141,248.965,413.064,244.203,414.177z"/>
	</g>
</g>
<path fill="#33AB4E" d="M232.572,333.116c1.27,0.563,2.322,1.536,3.633,2.011c0.04-0.459-0.033-1.004,0.324-1.361
	c0.966,0.684,1.788,1.563,2.768,2.243c0.004-0.575,0.017-1.149,0.049-1.726c1.307,0.74,2.1,2.156,3.23,3.143
	c0.204-0.433,0.409-0.867,0.615-1.301c1.979,2.193,3.777,4.768,4.188,7.764c0.551,2.325-0.833,4.965-3.135,5.688
	c-0.81-0.485-1.575-1.033-2.311-1.618c-4.135-2.991-8.706-5.352-13.467-7.17l-0.099,0.221c4.547,2.848,9.254,5.521,13.288,9.086
	c0.931,0.758,1.149,2.124,0.422,3.098c-1.478,2.156-3.964,3.529-6.519,3.979c-1.494,0.41-3.046,0.042-4.559,0.259
	c0.171-0.434,0.354-0.857,0.557-1.271c-1.42-0.009-2.808-0.367-4.219-0.493c-0.198-0.507,0.507-0.816,0.319-1.34
	c-1.361-0.184-2.563-0.924-3.854-1.362c0.396-0.313,0.882-0.437,1.371-0.539c-1.278-1.155-2.986-1.731-4.235-2.921
	c0.6-0.038,1.194-0.042,1.792-0.056c-0.915-1.136-2.3-1.791-3.163-2.964c0.514-0.055,1.032-0.102,1.551-0.152
	c-0.842-1.073-1.854-2.001-2.812-2.963c0.565-0.212,1.168-0.238,1.763-0.314c0.012-0.068,0.034-0.212,0.045-0.281
	c-0.838-0.914-1.878-1.687-2.427-2.824c0.662-0.032,1.326-0.041,1.987-0.028c-0.5-1.198-1.25-2.315-1.574-3.573
	c1.313,0.034,2.624,0.012,3.937,0.034c-0.236-0.448-0.479-0.897-0.661-1.368c1.64-0.188,3.244,0.131,4.829,0.498
	c-0.149-0.492-0.309-0.982-0.48-1.473c1.332,0.164,2.608,0.619,3.929,0.846c-0.266-0.466-0.517-0.947-0.593-1.484
	c1.417,0.175,2.643,1.024,4.025,1.307C232.915,334.173,232.735,333.646,232.572,333.116z"/>
<path fill="#33AB4E" d="M262.957,335.131c1.312-0.58,2.396-1.586,3.715-2.168c-0.24,0.585-0.501,1.17-0.74,1.762
	c1.44-0.556,2.904-1.049,4.357-1.565c-0.228,0.592-0.512,1.155-0.819,1.708c1.229-0.266,2.451-0.578,3.681-0.86
	c-0.063,0.562-0.2,1.103-0.424,1.624c1.623-0.604,3.346-0.736,5.061-0.637c-0.229,0.447-0.45,0.9-0.652,1.359
	c1.298-0.037,2.596,0.004,3.896-0.043c-0.284,1.287-1.185,2.359-1.596,3.615c0.695-0.014,1.396-0.025,2.093-0.003
	c-0.756,1.154-1.871,2.013-2.689,3.114c0.638,0.063,1.277,0.107,1.924,0.152c-0.736,1.199-1.932,2.047-2.799,3.15
	c0.549,0.031,1.102,0.063,1.653,0.112c-0.896,1.144-2.254,1.827-3.135,2.985c0.554,0.021,1.105,0.024,1.661,0.043
	c-1.154,1.207-2.869,1.718-4.079,2.871c0.34,0.185,0.686,0.367,1.021,0.561c-1.083,0.706-2.365,1.13-3.617,1.438
	c-0.054,0.496,0.479,0.856,0.349,1.364c-1.496,0.038-2.941,0.5-4.441,0.425c0.157,0.381,0.363,0.732,0.614,1.061
	c-0.5,0.54-1.284,0.426-1.944,0.463c-2.949-0.133-5.839-1.314-8.032-3.286c-0.896-0.92-1.785-2.249-1.329-3.577
	c0.735-1.467,2.411-1.992,3.577-3.027c2.957-2.565,6.421-4.431,9.813-6.35c0.317-0.199,0.708-0.338,0.903-0.683
	c-4.688,1.669-9.155,3.987-13.255,6.805c-1.127,0.78-2.12,2.228-3.681,1.808c-1.481-0.844-2.321-2.576-2.423-4.242
	c0.268-3.301,1.563-6.65,4.116-8.861c0.368,0.327,0.61,0.759,0.856,1.18c0.835-1.013,1.569-2.104,2.464-3.063
	c0.757-0.085,0.411,1.15,1.013,1.474c0.782-0.804,1.682-1.479,2.572-2.147C262.812,334.148,262.903,334.639,262.957,335.131z"/>
<path fill="#AE4A33" d="M246.723,336.275c0.028,0.035,0.086,0.104,0.113,0.138C246.809,336.38,246.75,336.311,246.723,336.275z"/>
<path fill="#AE4A33" d="M247.932,338.107c0.025,0.056,0.081,0.153,0.107,0.203C248.013,338.264,247.958,338.163,247.932,338.107z"/>
<path fill="#AE4A33" d="M248.895,340.249c0.019,0.043,0.057,0.13,0.074,0.177C248.95,340.379,248.912,340.292,248.895,340.249z"/>
<path fill="#3874BA" d="M240.11,361.98c3.616-4.604,10.741-5.699,15.663-2.6c1.714,1.085,3.558,2.646,3.642,4.836
	c0.016,1.551-1.151,2.78-2.419,3.514c-0.017,0.008-0.051,0.025-0.068,0.039c-3.423,1.814-7.5,1.885-11.229,1.125
	c-2.349-0.521-4.752-1.723-5.984-3.877c-0.01-0.02-0.024-0.056-0.036-0.072C239.391,363.968,239.393,362.779,240.11,361.98z"/>
<path fill="#3874BA" d="M232.316,359.477c1.621-0.354,3.353-0.203,4.906,0.324c0.865,0.303,0.343,1.184-0.055,1.665
	c-3.55,4.466-7.92,8.31-12.89,11.134c-0.521,0.24-1.065,0.657-1.679,0.515c-0.933-0.861-0.58-2.263-0.47-3.37
	C222.863,364.613,227.171,360.209,232.316,359.477z"/>
<path fill="#3874BA" d="M260.145,360.295c1.271-0.643,2.71-0.354,4.076-0.41c1.286,0.07,2.565,0.355,3.797,0.748
	c0.021,0.008,0.063,0.024,0.09,0.031c2.948,0.992,5.463,3.229,6.693,6.104c0.01,0.021,0.029,0.063,0.037,0.082
	c0.656,1.496,0.981,3.125,1.066,4.748c0.063,0.711-0.154,1.68-0.962,1.859c-1.172-0.324-2.17-1.055-3.188-1.688
	c-0.021-0.014-0.063-0.035-0.082-0.054c-0.206-0.136-0.62-0.409-0.833-0.548c-0.019-0.014-0.051-0.037-0.07-0.049
	c-3.817-2.641-7.303-5.814-10.107-9.521c-0.013-0.017-0.026-0.052-0.042-0.065C260.384,361.154,260.228,360.73,260.145,360.295z"/>
<path fill="#AE4A33" d="M221.208,363.832c0.023-0.037,0.07-0.114,0.097-0.148C221.279,363.718,221.232,363.795,221.208,363.832z"/>
<path fill="#3874BA" d="M255.777,370.779c1.969-1.193,4.375-1.303,6.602-0.969c4.055,0.844,7.517,3.896,9.046,7.719
	c0.009,0.021,0.028,0.063,0.038,0.089c1.031,2.604,1.203,5.579,0.313,8.25c-0.006,0.021-0.021,0.065-0.032,0.083
	c-0.896,2.708-3.158,4.93-5.958,5.589c-4.725,1.2-9.689-1.606-12.197-5.573c-0.016-0.02-0.035-0.053-0.046-0.07
	c-1.291-2.056-2.136-4.478-1.978-6.926c-0.17-3.173,1.342-6.52,4.146-8.146C255.727,370.814,255.759,370.792,255.777,370.779z"/>
<path fill="#3874BA" d="M234.832,370.8c2.206-0.804,4.655-0.938,6.884-0.138c2.118,0.727,3.863,2.389,4.764,4.432
	c0.008,0.022,0.03,0.064,0.04,0.086c2.377,5.723-0.476,12.793-5.815,15.74c-2.488,1.466-5.615,1.756-8.348,0.87
	c-0.021-0.013-0.063-0.024-0.086-0.033c-1.737-0.604-3.242-1.815-4.247-3.354c-0.014-0.016-0.035-0.049-0.046-0.067
	c-1.522-2.294-1.624-5.19-1.233-7.836c0.15-0.608,0.243-1.25,0.556-1.808c0.079-0.135,0.235-0.4,0.312-0.539
	c0.021-1.002,0.813-1.832,1.284-2.685c0.015-0.02,0.038-0.054,0.05-0.073c1.443-2.035,3.449-3.696,5.803-4.563
	C234.768,370.82,234.81,370.809,234.832,370.8z"/>
<path fill="#3874BA" d="M276,376.313c0.72-0.451,1.629-0.225,2.225,0.324c2.716,2.234,4.806,5.528,4.843,9.129
	c0.146,2.853-0.797,5.752-2.591,7.977c-0.48,0.521-1.246,1.273-1.993,0.785c-0.89-0.463-1.31-1.436-1.718-2.299
	c-1.096-2.52-1.716-5.25-1.844-7.989c-0.233-1.943-0.336-3.933,0.028-5.863C275.044,377.6,275.34,376.777,276,376.313z"/>
<path fill="#3874BA" d="M219.668,376.939c0.416-0.315,0.922-0.479,1.411-0.646c1.841,0.307,2.037,2.409,2.109,3.91
	c0.021,3.554-0.175,7.186-1.315,10.578c-0.011,0.019-0.024,0.068-0.032,0.088c-0.548,1.488-1.093,3.072-2.331,4.141
	c-0.594,0.022-1.241,0.002-1.657-0.49c-2.772-2.834-3.659-7.178-2.714-10.967C215.809,380.904,217.472,378.55,219.668,376.939z"/>
<path fill="#3874BA" d="M240.497,394.677c2.811-4.065,8.476-5.438,13.035-3.86c0.021,0.009,0.063,0.022,0.088,0.031
	c1.878,0.643,3.613,1.775,4.863,3.327c0.016,0.017,0.037,0.048,0.05,0.065c0.644,0.814,1.146,1.736,1.491,2.718
	c0.005,0.021,0.021,0.06,0.028,0.081c0.872,2.748,0.685,5.941-0.868,8.421c-0.777,1.294-1.863,2.397-3.115,3.235
	c-0.02,0.013-0.054,0.033-0.071,0.049c-0.744,0.479-1.544,0.875-2.381,1.168c-0.021,0.005-0.063,0.021-0.081,0.027
	c-2.763,0.973-5.859,0.873-8.542-0.293c-0.022-0.008-0.063-0.027-0.084-0.037c-4.683-1.904-7.475-7.653-5.604-12.438
	c0.08-0.134,0.237-0.396,0.313-0.526C239.534,395.898,240.169,395.302,240.497,394.677z"/>
<path fill="#3874BA" d="M272.715,394.188c1.341-0.58,3.013-0.178,3.925,0.972c1.188,1.499,1.502,3.512,1.416,5.376
	c0.153,2.639-0.592,5.288-1.979,7.523c-0.015,0.021-0.039,0.057-0.049,0.074c-1.39,2.217-3.408,4.051-5.778,5.166
	c-0.021,0.01-0.06,0.028-0.08,0.038c-1.917,0.858-4.099,1.354-6.184,0.931c-1.588-0.397-2.56-1.961-2.562-3.543
	c-0.176-2.475,0.436-4.938,1.361-7.218c0.01-0.022,0.026-0.062,0.034-0.081c1.854-4.224,5.482-7.607,9.806-9.203
	C272.646,394.214,272.696,394.197,272.715,394.188z"/>
<path fill="#3874BA" d="M220.845,398.387c0.347-1.303,1.284-2.638,2.712-2.836c2.071-0.412,4.109,0.592,5.846,1.622
	c2.988,1.894,5.361,4.765,6.604,8.086c0.007,0.023,0.024,0.064,0.031,0.087c0.069,0.211,0.212,0.631,0.282,0.84
	c0.008,0.021,0.022,0.065,0.028,0.09c0.554,1.531,0.492,3.177,0.421,4.779c-0.257,1.063-0.801,2.184-1.854,2.646
	c-0.918,0.566-2.024,0.369-3.046,0.389C224.657,413.259,219.212,405.438,220.845,398.387z"/>
<path fill="#AE4A33" d="M216.606,399.677c0.018,0.041,0.049,0.122,0.065,0.162C216.656,399.799,216.623,399.718,216.606,399.677z"/>
<path fill="#3874BA" d="M244.203,414.177c4.763-1.11,10.001-1.036,14.45,1.177c1.062,0.461,1.915,1.879,1.104,2.931
	c-2.978,4.525-9.166,6.801-14.313,4.988c-0.13-0.077-0.389-0.237-0.52-0.317c-0.46,0.153-0.842-0.206-1.241-0.354
	c-2.032-1.007-3.918-2.482-5.019-4.503c-0.23-0.83,0.298-1.654,0.993-2.07C241.052,415.157,242.613,414.576,244.203,414.177z"/>
<path fill="#AE4A33" d="M228.266,416.643c0.042,0.023,0.119,0.069,0.156,0.092C228.385,416.712,228.308,416.666,228.266,416.643z"/>
<path fill="#AE4A33" d="M234.429,420.029c0.038,0.022,0.114,0.066,0.154,0.091C234.542,420.096,234.466,420.055,234.429,420.029z"/>
<path fill="#AE4A33" d="M235.973,420.945c0.032,0.025,0.104,0.066,0.14,0.092C236.077,421.014,236.005,420.973,235.973,420.945z"/>
<path fill="#AE4A33" d="M241.805,424.942c0.041,0.021,0.124,0.063,0.166,0.088C241.929,425.008,241.846,424.964,241.805,424.942z"/>
</svg>
