<?xml version="1.0" encoding="utf-8"?>
<!-- Generator: Adobe Illustrator 16.0.0, SVG Export Plug-In . SVG Version: 6.00 Build 0)  -->
<!DOCTYPE svg PUBLIC "-//W3C//DTD SVG 1.1//EN" "http://www.w3.org/Graphics/SVG/1.1/DTD/svg11.dtd">
<svg version="1.1" id="Layer_1" xmlns="http://www.w3.org/2000/svg" xmlns:xlink="http://www.w3.org/1999/xlink" x="0px" y="0px"
	 width="400px" height="300px" viewBox="0 0 400 300" enable-background="new 0 0 400 300" xml:space="preserve">
<g>
	<path fill="#1E7BE0" d="M16.311,59.736c66.871-26.15,142.668-25.225,209.915-0.884c0.38,20.886,0.294,41.857,0.127,62.786
		c-53.898-13.685-110.832-21.94-165.745-9.012c0.086-6.948,0.212-13.897,0.384-20.802c47.835-11.244,97.607-6.737,145.106,4.043
		c0.041-7.497,0.085-14.952,0.125-22.404C151.398,55.904,91.308,55.819,36.48,73.378c0.044,22.952-0.125,45.9,0.254,68.894
		c61.902-14.782,127.297-14.067,188.354,4.295c-8.546,59.457-53.354,105.357-102.998,134.958
		c-37.271-21.519-71.586-50.571-91.882-89.188c43.203-16.929,90.788-18.274,136.224-11.706c-3.033,6.317-6.151,12.594-9.266,18.865
		c-31.792-1.938-64.046-2.188-95.208,5.265c14.946,19.96,33.688,37.14,55.037,49.984c4.758,3.705,10.021-0.632,14.105-3.117
		c32.297-21.687,58.194-53.101,70.827-90.112c-59.669-15.792-123.171-11.203-182.04,5.854
		C14.036,131.784,17.237,95.613,16.311,59.736z"/>
</g>
<path fill="#E74B3C" d="M130.925,216.715c0.01,0.004,0.032,0.014,0.045,0.016C130.957,216.729,130.935,216.719,130.925,216.715z"/>
<path fill="#E74B3C" d="M127.141,217.176c0.007,0.008,0.018,0.026,0.021,0.034C127.157,217.202,127.148,217.184,127.141,217.176z"/>
<path fill="#E74B3C" d="M116.425,218.921c0.006,0.011,0.013,0.028,0.018,0.037C116.438,218.949,116.431,218.932,116.425,218.921z"/>
<path fill="#E74B3C" d="M134.396,219.854c0.004,0.012,0.016,0.031,0.021,0.041C134.41,219.885,134.4,219.863,134.396,219.854z"/>
<path fill="#E74B3C" d="M125.25,220.366c0.01-0.007,0.025-0.017,0.035-0.021C125.277,220.35,125.26,220.359,125.25,220.366z"/>
<path fill="#E74B3C" d="M113.903,221.932c0.014-0.005,0.033-0.012,0.044-0.016C113.936,221.92,113.915,221.927,113.903,221.932z"/>
<path fill="#E74B3C" d="M124.627,221.93c0.009-0.006,0.024-0.017,0.036-0.021C124.653,221.913,124.637,221.924,124.627,221.93z"/>
<path fill="#E74B3C" d="M132.334,222.08c0.009,0.007,0.025,0.02,0.036,0.025C132.361,222.1,132.344,222.086,132.334,222.08z"/>
<path fill="#E74B3C" d="M132.796,222.386c0.011,0.009,0.032,0.021,0.042,0.026C132.828,222.406,132.807,222.395,132.796,222.386z"/>
<path fill="#E74B3C" d="M119.906,224.113c0.006,0.011,0.018,0.033,0.021,0.044C119.922,224.146,119.911,224.124,119.906,224.113z"/>
<path fill="#E74B3C" d="M110.91,224.305c0.006-0.009,0.019-0.027,0.023-0.037C110.929,224.277,110.916,224.295,110.91,224.305z"/>
<path fill="#E74B3C" d="M132.667,225.359c0.005,0.011,0.014,0.033,0.02,0.045C132.681,225.393,132.672,225.37,132.667,225.359z"/>
<path fill="#E74B3C" d="M110.119,225.686l0.134-0.008c-0.04,0.07-0.12,0.207-0.16,0.276
	C110.1,225.887,110.113,225.751,110.119,225.686z"/>
<path fill="#E74B3C" d="M139.267,225.68c0.011,0.019,0.034,0.049,0.045,0.065C139.3,225.729,139.278,225.697,139.267,225.68z"/>
<path fill="#E74B3C" d="M123.518,229.639c0.005,0.01,0.018,0.027,0.023,0.037C123.534,229.667,123.523,229.648,123.518,229.639z"/>
<path fill="#E74B3C" d="M132.831,229.668c0.005-0.01,0.013-0.033,0.016-0.043C132.844,229.635,132.836,229.658,132.831,229.668z"/>
<path fill="#E74B3C" d="M110.44,230.887c0.006,0.01,0.019,0.027,0.023,0.035C110.457,230.914,110.446,230.896,110.44,230.887z"/>
<path fill="#E74B3C" d="M107.301,232.184c0.004-0.01,0.012-0.035,0.016-0.045C107.313,232.148,107.305,232.173,107.301,232.184z"/>
<path fill="#E74B3C" d="M123.514,232.156c0.011,0.004,0.033,0.011,0.044,0.015C123.547,232.167,123.525,232.161,123.514,232.156z"/>
<path fill="#E74B3C" d="M112.637,232.639c0.011,0.004,0.033,0.01,0.044,0.017C112.669,232.648,112.647,232.643,112.637,232.639z"/>
<path fill="#E74B3C" d="M126.048,233.875c0.006,0.008,0.019,0.023,0.023,0.033C126.066,233.898,126.054,233.883,126.048,233.875z"/>
<path fill="#E74B3C" d="M133.283,233.898c0.01-0.004,0.033-0.015,0.045-0.02C133.318,233.886,133.293,233.895,133.283,233.898z"/>
<path fill="#E74B3C" d="M116.262,235.141l0.133-0.002c-0.039,0.067-0.119,0.201-0.16,0.271
	C116.244,235.342,116.256,235.206,116.262,235.141z"/>
<path fill="#E74B3C" d="M126.836,235.299c0.003,0.01,0.009,0.03,0.015,0.041C126.845,235.329,126.839,235.309,126.836,235.299z"/>
<path fill="#E74B3C" d="M128.249,238.648c0.005-0.013,0.015-0.031,0.019-0.043C128.264,238.617,128.254,238.639,128.249,238.648z"/>
<path fill="#E74B3C" d="M114.547,239.545c0.004,0.012,0.013,0.033,0.016,0.044C114.561,239.578,114.551,239.557,114.547,239.545z"/>
<path fill="#E74B3C" d="M114.708,240.02c0.003,0.01,0.011,0.033,0.014,0.045C114.72,240.053,114.712,240.029,114.708,240.02z"/>
<path fill="#E74B3C" d="M135.024,241.016c0.004-0.01,0.02-0.026,0.024-0.039C135.042,240.988,135.028,241.006,135.024,241.016z"/>
<path fill="#E74B3C" d="M124.775,241.328c0.012-0.008,0.028-0.02,0.038-0.023C124.803,241.311,124.785,241.32,124.775,241.328z"/>
<path fill="#E74B3C" d="M119.103,241.771c0.014,0.004,0.032,0.015,0.043,0.019C119.134,241.786,119.114,241.775,119.103,241.771z"/>
<path fill="#E74B3C" d="M123.516,241.939c0.009-0.002,0.032-0.01,0.042-0.015C123.547,241.93,123.525,241.938,123.516,241.939z"/>
<path fill="#E74B3C" d="M132.026,243.678c0.013-0.005,0.03-0.015,0.041-0.02C132.056,243.663,132.037,243.673,132.026,243.678z"/>
<path fill="#E74B3C" d="M130.284,246.361c0.013-0.008,0.035-0.023,0.049-0.03C130.321,246.337,130.297,246.354,130.284,246.361z"/>
<path fill="#E74B3C" d="M119.111,248.598c0.067,0.041,0.2,0.123,0.268,0.162c-0.066-0.006-0.2-0.021-0.27-0.027L119.111,248.598z"/>
<g>
	<g>
		<path fill="none" d="M125.561,202.384c1.311-0.606,2.761-0.767,4.175-0.974c0.485-0.096,0.953,0.111,1.433,0.15
			c0.378,0.006,0.756-0.043,1.136-0.002c0.755,0.062,1.435,0.438,2.169,0.594c0.5,0.133,1.023,0.127,1.524,0.256
			c0.528,0.138,0.908,0.621,1.476,0.66c0.431,0.05,0.814,0.26,1.189,0.463c0.063,0.529,0.029,1.063,0.033,1.595
			c0.102,0.467,0.351,0.94,0.181,1.426c-0.372,1.181-0.628,2.407-1.16,3.531c-0.806,1.578-1.796,3.131-3.273,4.16
			c-0.458,0.562-1.019,1.028-1.731,1.217c1.312,0.845,2.576,1.854,3.325,3.259c0.515,0.954,0.878,2.028,0.813,3.125
			c-0.021,0.605-0.023,1.301,0.464,1.745c0.708,0.642,1.433,1.282,1.954,2.093c0.011,0.019,0.034,0.049,0.045,0.065
			c0.536,0.829,0.953,1.748,1.149,2.718c0.137,1.092,0.158,2.207-0.021,3.292c-0.349,1.263-1.212,2.287-1.729,3.476
			c-1.063,2.338-1.066,5.136-2.754,7.187c-1.422,1.877-3.697,2.697-5.625,3.917c-0.015,0.006-0.037,0.021-0.049,0.03
			c-2.252,1.417-4.398,3.098-6.97,3.915c-1.466,0.375-3.006,0.285-4.47-0.051c-0.415-0.191-0.835-0.366-1.247-0.565
			c-0.021-0.013-0.063-0.034-0.085-0.045c-1.027-0.584-1.873-1.435-2.912-1.998c-0.018-0.013-0.055-0.033-0.072-0.046
			c-0.231-0.148-0.471-0.288-0.711-0.424c-0.021-0.012-0.06-0.032-0.079-0.047c-1.01-0.588-2.052-1.119-3.072-1.686
			c-0.021-0.011-0.06-0.035-0.08-0.046c-1.836-1.051-3.643-2.374-4.605-4.315c-0.728-1.332-0.695-2.912-1.327-4.281
			c-0.008-0.021-0.023-0.063-0.031-0.084c-0.72-1.828-1.891-3.481-2.336-5.418c-0.485-2.705,0.646-5.649,2.834-7.316
			c0.227-0.202,0.478-0.396,0.612-0.675c0.109-0.521,0.084-1.06,0.155-1.584c0.105-1.179,0.493-2.323,1.087-3.343
			c0.013-0.021,0.037-0.06,0.05-0.076c0.746-1.2,1.882-2.069,3.073-2.797c-0.979-0.25-1.578-1.098-2.322-1.705
			c-1.08-0.907-1.846-2.116-2.521-3.338c-0.69-1.209-0.896-2.604-1.319-3.914c-0.186-0.469,0.078-0.93,0.186-1.379
			c0.018-0.521-0.248-1.129,0.122-1.584c0.442-0.541,1.257-0.315,1.771-0.732c0.566-0.434,1.295-0.51,1.976-0.612
			c1.085-0.114,2.06-0.793,3.178-0.68c0.637,0.123,1.253-0.253,1.885-0.06c0.571,0.127,1.14,0.281,1.728,0.293
			c1.167,0.052,2.28,0.484,3.293,1.043c0.705,0.404,1.421,0.824,1.96,1.442c0.016,0.017,0.044,0.052,0.059,0.07
			c0.205,0.276,0.385,0.571,0.561,0.866c0.015,0.027,0.042,0.08,0.057,0.104c0.148,0.328,0.292,0.661,0.438,0.991
			c0.009,0.021,0.028,0.066,0.038,0.09c0.062,0.146,0.187,0.439,0.25,0.586c0.278-0.676,0.485-1.388,0.896-2.001
			C123.08,203.771,124.289,202.949,125.561,202.384z M112.791,202.639c0.083,0.271,0.175,0.539,0.263,0.812
			c-0.708-0.144-1.334-0.579-2.06-0.667c0.039,0.273,0.167,0.521,0.303,0.759c-0.676-0.116-1.329-0.351-2.01-0.435
			c0.088,0.25,0.169,0.502,0.246,0.754c-0.813-0.188-1.634-0.351-2.472-0.256c0.096,0.242,0.217,0.473,0.338,0.701
			c-0.67-0.012-1.342,0-2.013-0.018c0.166,0.643,0.549,1.214,0.805,1.827c-0.338-0.007-0.678-0.001-1.017,0.016
			c0.281,0.583,0.813,0.978,1.241,1.445c-0.005,0.036-0.019,0.108-0.022,0.146c-0.304,0.039-0.611,0.053-0.9,0.16
			c0.488,0.492,1.008,0.967,1.438,1.516c-0.265,0.027-0.53,0.053-0.792,0.08c0.442,0.601,1.15,0.937,1.618,1.517
			c-0.306,0.007-0.611,0.01-0.917,0.028c0.639,0.606,1.513,0.902,2.167,1.494c-0.25,0.054-0.499,0.116-0.701,0.276
			c0.66,0.226,1.275,0.604,1.972,0.697c0.099,0.267-0.264,0.426-0.161,0.687c0.722,0.063,1.432,0.247,2.157,0.252
			c-0.104,0.211-0.195,0.428-0.285,0.648c0.774-0.11,1.568,0.078,2.333-0.131c1.309-0.23,2.579-0.934,3.334-2.035
			c0.373-0.498,0.262-1.197-0.215-1.584c-2.063-1.824-4.473-3.191-6.799-4.648l0.05-0.113c2.438,0.932,4.774,2.139,6.892,3.668
			c0.375,0.301,0.768,0.58,1.181,0.828c1.178-0.371,1.886-1.72,1.604-2.91c-0.209-1.532-1.131-2.85-2.143-3.971
			c-0.104,0.221-0.21,0.443-0.314,0.664c-0.578-0.503-0.984-1.228-1.652-1.605c-0.017,0.294-0.023,0.588-0.025,0.882
			c-0.5-0.351-0.922-0.799-1.415-1.147c-0.183,0.185-0.146,0.463-0.167,0.696C113.979,203.424,113.44,202.926,112.791,202.639z
			 M128.335,203.667c-0.026-0.251-0.074-0.501-0.162-0.737c-0.457,0.342-0.916,0.688-1.316,1.101
			c-0.308-0.165-0.13-0.798-0.518-0.755c-0.457,0.492-0.834,1.051-1.26,1.566c-0.126-0.214-0.25-0.436-0.438-0.603
			c-1.306,1.13-1.97,2.845-2.104,4.534c0.051,0.853,0.479,1.74,1.235,2.17c0.799,0.214,1.31-0.525,1.886-0.924
			c2.097-1.441,4.382-2.627,6.778-3.482c-0.1,0.177-0.299,0.248-0.461,0.35c-1.733,0.982-3.508,1.937-5.02,3.248
			c-0.599,0.529-1.455,0.799-1.831,1.549c-0.233,0.682,0.223,1.36,0.68,1.832c1.123,1.008,2.602,1.612,4.11,1.68
			c0.337-0.019,0.738,0.039,0.996-0.235c-0.132-0.167-0.235-0.349-0.316-0.542c0.768,0.039,1.508-0.197,2.273-0.217
			c0.064-0.26-0.206-0.445-0.181-0.699c0.643-0.156,1.297-0.372,1.853-0.732c-0.173-0.1-0.351-0.192-0.522-0.287
			c0.619-0.59,1.496-0.851,2.086-1.469c-0.284-0.009-0.565-0.012-0.85-0.022c0.45-0.593,1.143-0.943,1.604-1.527
			c-0.281-0.024-0.564-0.042-0.847-0.058c0.443-0.566,1.054-0.999,1.432-1.612c-0.33-0.024-0.656-0.046-0.982-0.079
			c0.42-0.563,0.99-1.002,1.377-1.593c-0.358-0.011-0.715-0.005-1.071,0.001c0.21-0.643,0.671-1.191,0.816-1.85
			c-0.666,0.022-1.33,0.002-1.994,0.021c0.104-0.233,0.217-0.466,0.334-0.694c-0.876-0.053-1.758,0.017-2.588,0.324
			c0.11-0.268,0.183-0.545,0.216-0.831c-0.628,0.146-1.254,0.306-1.882,0.44c0.158-0.282,0.303-0.572,0.418-0.874
			c-0.744,0.266-1.492,0.519-2.23,0.801c0.124-0.303,0.256-0.603,0.379-0.901C129.562,202.855,129.007,203.371,128.335,203.667z
			 M116.647,217.404c-0.367,0.41-0.368,1.017-0.222,1.517c0.006,0.011,0.013,0.028,0.018,0.037c0.633,1.103,1.861,1.718,3.063,1.983
			c1.907,0.389,3.993,0.354,5.745-0.575c0.01-0.007,0.025-0.017,0.035-0.021c0.646-0.375,1.245-1.005,1.235-1.799
			c-0.043-1.121-0.983-1.918-1.861-2.473C122.143,214.489,118.497,215.049,116.647,217.404z M112.66,216.123
			c-2.634,0.375-4.836,2.628-5.211,5.252c-0.058,0.566-0.237,1.283,0.238,1.723c0.313,0.074,0.591-0.139,0.859-0.262
			c2.541-1.445,4.777-3.411,6.593-5.695c0.204-0.246,0.471-0.697,0.028-0.852C114.375,216.02,113.489,215.941,112.66,216.123z
			 M126.897,216.542c0.042,0.224,0.122,0.438,0.244,0.634c0.007,0.008,0.018,0.026,0.021,0.034c1.435,1.896,3.217,3.521,5.172,4.87
			c0.009,0.007,0.025,0.02,0.036,0.025c0.106,0.069,0.318,0.211,0.426,0.279c0.011,0.01,0.032,0.021,0.042,0.026
			c0.52,0.323,1.031,0.696,1.631,0.862c0.411-0.092,0.524-0.588,0.491-0.95c-0.043-0.83-0.211-1.664-0.546-2.431
			c-0.005-0.011-0.017-0.031-0.021-0.041c-0.63-1.472-1.916-2.615-3.425-3.123c-0.013-0.004-0.035-0.013-0.045-0.017
			c-0.629-0.202-1.285-0.347-1.943-0.383C128.284,216.361,127.547,216.212,126.897,216.542z M124.663,221.907
			c-0.012,0.006-0.026,0.017-0.036,0.022c-1.436,0.83-2.207,2.543-2.121,4.166c-0.082,1.254,0.35,2.491,1.011,3.543
			c0.005,0.01,0.018,0.026,0.023,0.036c1.281,2.029,3.822,3.466,6.239,2.853c1.434-0.338,2.592-1.473,3.05-2.858
			c0.005-0.01,0.013-0.033,0.016-0.043c0.455-1.366,0.367-2.888-0.16-4.22c-0.005-0.012-0.014-0.035-0.02-0.047
			c-0.782-1.955-2.556-3.518-4.627-3.948C126.901,221.239,125.669,221.294,124.663,221.907z M113.947,221.917
			c-0.011,0.003-0.031,0.01-0.044,0.017c-1.201,0.442-2.229,1.293-2.968,2.336c-0.006,0.008-0.019,0.026-0.023,0.037
			c-0.241,0.437-0.647,0.86-0.657,1.373l-0.134,0.008c-0.008,0.065-0.021,0.201-0.025,0.27c-0.16,0.284-0.207,0.609-0.285,0.924
			c-0.199,1.354-0.146,2.834,0.632,4.01c0.006,0.01,0.019,0.026,0.023,0.034c0.514,0.787,1.283,1.407,2.173,1.718
			c0.011,0.004,0.033,0.01,0.044,0.016c1.397,0.453,2.997,0.305,4.271-0.445c2.73-1.508,4.19-5.125,2.976-8.052
			c-0.005-0.011-0.016-0.033-0.021-0.044c-0.462-1.045-1.354-1.895-2.438-2.268C116.33,221.436,115.076,221.505,113.947,221.917z
			 M135.009,224.736c-0.338,0.238-0.49,0.658-0.537,1.055c-0.187,0.988-0.134,2.005-0.015,2.999c0.064,1.403,0.383,2.8,0.942,4.088
			c0.208,0.442,0.425,0.938,0.879,1.176c0.383,0.25,0.772-0.135,1.021-0.401c0.917-1.137,1.399-2.62,1.325-4.082
			c-0.021-1.842-1.088-3.524-2.479-4.668C135.841,224.621,135.377,224.505,135.009,224.736z M106.189,225.059
			c-1.124,0.822-1.975,2.028-2.315,3.383c-0.483,1.938-0.031,4.162,1.389,5.61c0.213,0.253,0.544,0.263,0.848,0.25
			c0.635-0.546,0.912-1.356,1.192-2.118c0.004-0.01,0.012-0.035,0.016-0.045c0.584-1.736,0.687-3.593,0.676-5.412
			c-0.039-0.767-0.14-1.844-1.081-2C106.661,224.813,106.402,224.896,106.189,225.059z M116.845,234.132
			c-0.167,0.319-0.492,0.625-0.45,1.007l-0.133,0.002c-0.006,0.065-0.018,0.201-0.027,0.269c-0.956,2.446,0.474,5.389,2.867,6.362
			c0.012,0.004,0.032,0.016,0.043,0.02c1.373,0.598,2.958,0.646,4.37,0.148c0.009-0.002,0.032-0.01,0.042-0.014
			c0.428-0.148,0.836-0.354,1.217-0.598c0.012-0.008,0.028-0.02,0.038-0.023c0.643-0.429,1.195-0.994,1.593-1.656
			c0.797-1.269,0.894-2.901,0.445-4.309c-0.005-0.011-0.012-0.031-0.015-0.041c-0.177-0.503-0.437-0.974-0.765-1.391
			c-0.006-0.01-0.019-0.025-0.023-0.033c-0.64-0.794-1.529-1.375-2.489-1.704c-0.011-0.004-0.034-0.011-0.044-0.015
			C121.181,231.35,118.283,232.051,116.845,234.132z M133.283,233.898c-2.213,0.814-4.068,2.547-5.017,4.707
			c-0.004,0.011-0.014,0.03-0.019,0.043c-0.476,1.166-0.786,2.427-0.697,3.692c0.001,0.81,0.498,1.608,1.311,1.813
			c1.067,0.217,2.184-0.037,3.163-0.478c0.013-0.005,0.03-0.015,0.041-0.02c1.213-0.57,2.245-1.511,2.957-2.646
			c0.004-0.009,0.02-0.027,0.024-0.039c0.71-1.144,1.09-2.498,1.013-3.849c0.044-0.955-0.118-1.983-0.725-2.751
			c-0.466-0.586-1.321-0.792-2.007-0.496C133.318,233.886,133.293,233.895,133.283,233.898z M106.792,236.029
			c-0.835,3.605,1.95,7.609,5.639,8.033c0.523-0.011,1.089,0.092,1.561-0.198c0.538-0.237,0.815-0.813,0.947-1.354
			c0.037-0.82,0.068-1.66-0.215-2.445c-0.003-0.012-0.011-0.035-0.014-0.045c-0.037-0.105-0.109-0.321-0.146-0.431
			c-0.003-0.011-0.012-0.032-0.016-0.044c-0.635-1.699-1.849-3.168-3.377-4.137c-0.889-0.527-1.933-1.04-2.991-0.829
			C107.448,234.68,106.969,235.363,106.792,236.029z M118.741,244.107c-0.813,0.205-1.612,0.502-2.325,0.947
			c-0.355,0.213-0.625,0.635-0.508,1.059c0.563,1.033,1.526,1.789,2.565,2.304c0.204,0.076,0.399,0.259,0.635,0.181l-0.002,0.135
			c0.068,0.008,0.202,0.021,0.27,0.027c2.633,0.928,5.8-0.236,7.323-2.552c0.413-0.537-0.023-1.263-0.564-1.499
			C123.858,243.577,121.178,243.54,118.741,244.107z"/>
	</g>
</g>
<path fill="#33AA4D" d="M112.791,202.639c0.647,0.287,1.188,0.785,1.856,1.028c0.021-0.235-0.017-0.515,0.167-0.698
	c0.493,0.35,0.915,0.801,1.415,1.149c0.002-0.294,0.011-0.588,0.025-0.882c0.668,0.379,1.074,1.104,1.652,1.605
	c0.104-0.221,0.21-0.441,0.314-0.665c1.012,1.123,1.932,2.438,2.142,3.974c0.281,1.188-0.427,2.539-1.604,2.91
	c-0.413-0.248-0.806-0.528-1.181-0.83c-2.115-1.529-4.454-2.736-6.892-3.668l-0.05,0.112c2.326,1.457,4.734,2.825,6.799,4.649
	c0.478,0.387,0.588,1.086,0.215,1.584c-0.755,1.104-2.025,1.805-3.334,2.033c-0.764,0.209-1.559,0.021-2.333,0.133
	c0.09-0.223,0.183-0.438,0.285-0.649c-0.727-0.004-1.437-0.188-2.159-0.252c-0.101-0.26,0.262-0.419,0.163-0.687
	c-0.694-0.094-1.312-0.473-1.972-0.696c0.202-0.16,0.451-0.224,0.701-0.274c-0.654-0.593-1.527-0.889-2.167-1.496
	c0.306-0.02,0.61-0.021,0.917-0.028c-0.468-0.58-1.176-0.916-1.618-1.517c0.262-0.027,0.528-0.052,0.792-0.078
	c-0.43-0.549-0.947-1.023-1.438-1.518c0.288-0.107,0.599-0.122,0.901-0.161c0.005-0.034,0.019-0.106,0.022-0.145
	c-0.43-0.47-0.96-0.862-1.241-1.445c0.338-0.019,0.678-0.021,1.017-0.017c-0.256-0.612-0.64-1.184-0.805-1.826
	c0.671,0.017,1.342,0.005,2.013,0.017c-0.121-0.229-0.244-0.456-0.338-0.698c0.838-0.097,1.659,0.065,2.471,0.254
	c-0.075-0.252-0.156-0.502-0.245-0.752c0.681,0.084,1.334,0.315,2.01,0.433c-0.136-0.239-0.267-0.485-0.303-0.759
	c0.725,0.088,1.351,0.521,2.06,0.666C112.966,203.178,112.875,202.909,112.791,202.639z"/>
<path fill="#33AA4D" d="M128.335,203.667c0.671-0.296,1.227-0.812,1.898-1.108c-0.123,0.299-0.255,0.6-0.379,0.901
	c0.738-0.284,1.486-0.536,2.23-0.801c-0.115,0.302-0.26,0.591-0.418,0.874c0.628-0.137,1.254-0.297,1.882-0.44
	c-0.033,0.286-0.104,0.563-0.216,0.831c0.83-0.309,1.711-0.377,2.588-0.326c-0.117,0.23-0.231,0.463-0.334,0.696
	c0.664-0.019,1.328,0.002,1.994-0.022c-0.146,0.66-0.606,1.207-0.816,1.852c0.356-0.006,0.713-0.014,1.071-0.001
	c-0.387,0.59-0.957,1.028-1.377,1.593c0.327,0.033,0.654,0.057,0.982,0.079c-0.377,0.613-0.987,1.046-1.432,1.61
	c0.28,0.018,0.563,0.033,0.847,0.06c-0.46,0.584-1.152,0.937-1.604,1.527c0.282,0.012,0.564,0.015,0.85,0.022
	c-0.59,0.618-1.468,0.877-2.086,1.469c0.173,0.095,0.351,0.188,0.522,0.285c-0.556,0.362-1.21,0.58-1.853,0.734
	c-0.025,0.254,0.246,0.439,0.181,0.699c-0.768,0.02-1.508,0.256-2.273,0.217c0.081,0.193,0.187,0.375,0.316,0.542
	c-0.258,0.276-0.659,0.218-0.996,0.237c-1.51-0.067-2.988-0.672-4.11-1.682c-0.457-0.472-0.913-1.15-0.68-1.83
	c0.376-0.75,1.232-1.021,1.831-1.551c1.512-1.313,3.285-2.266,5.02-3.247c0.162-0.103,0.362-0.173,0.461-0.351
	c-2.396,0.854-4.683,2.041-6.778,3.48c-0.576,0.399-1.084,1.141-1.886,0.926c-0.757-0.433-1.187-1.317-1.235-2.172
	c0.135-1.688,0.799-3.401,2.104-4.533c0.188,0.168,0.313,0.39,0.438,0.604c0.426-0.517,0.803-1.074,1.26-1.564
	c0.388-0.045,0.21,0.589,0.518,0.752c0.4-0.41,0.859-0.756,1.316-1.098C128.261,203.167,128.309,203.416,128.335,203.667z"/>
<path fill="#AD4932" d="M120.03,204.254c0.017,0.018,0.046,0.053,0.06,0.07C120.075,204.307,120.045,204.271,120.03,204.254z"/>
<path fill="#AD4932" d="M120.649,205.191c0.015,0.025,0.042,0.078,0.057,0.104C120.691,205.271,120.662,205.219,120.649,205.191z"/>
<path fill="#AD4932" d="M121.142,206.286c0.009,0.022,0.028,0.065,0.038,0.09C121.17,206.354,121.151,206.309,121.142,206.286z"/>
<path fill="#1E7BE0" d="M116.647,217.404c1.852-2.354,5.495-2.915,8.014-1.329c0.877,0.555,1.818,1.352,1.861,2.473
	c0.008,0.793-0.589,1.423-1.235,1.798c-0.01,0.004-0.025,0.014-0.035,0.021c-1.751,0.929-3.837,0.964-5.745,0.574
	c-1.202-0.266-2.431-0.881-3.063-1.982c-0.005-0.009-0.012-0.025-0.018-0.037C116.28,218.421,116.281,217.813,116.647,217.404z"/>
<path fill="#1E7BE0" d="M112.66,216.123c0.827-0.182,1.714-0.104,2.51,0.167c0.44,0.155,0.175,0.604-0.028,0.853
	c-1.814,2.284-4.052,4.25-6.593,5.694c-0.27,0.124-0.546,0.336-0.859,0.263c-0.477-0.439-0.296-1.156-0.238-1.724
	C107.824,218.751,110.028,216.498,112.66,216.123z"/>
<path fill="#1E7BE0" d="M126.897,216.542c0.649-0.33,1.388-0.181,2.084-0.21c0.658,0.036,1.313,0.182,1.943,0.383
	c0.01,0.004,0.032,0.014,0.045,0.016c1.509,0.51,2.795,1.652,3.425,3.123c0.004,0.012,0.016,0.031,0.021,0.041
	c0.335,0.768,0.502,1.602,0.546,2.432c0.033,0.361-0.08,0.857-0.491,0.949c-0.6-0.164-1.111-0.539-1.631-0.861
	c-0.011-0.006-0.032-0.02-0.042-0.025c-0.105-0.068-0.318-0.209-0.426-0.281c-0.011-0.006-0.026-0.02-0.036-0.024
	c-1.955-1.351-3.737-2.974-5.172-4.87c-0.008-0.008-0.017-0.025-0.021-0.033C127.02,216.98,126.94,216.766,126.897,216.542z"/>
<path fill="#AD4932" d="M106.977,218.352c0.015-0.021,0.037-0.059,0.05-0.076C107.014,218.293,106.99,218.332,106.977,218.352z"/>
<path fill="#1E7BE0" d="M124.663,221.907c1.006-0.612,2.236-0.667,3.376-0.497c2.071,0.432,3.846,1.994,4.627,3.949
	c0.005,0.011,0.014,0.033,0.02,0.046c0.527,1.331,0.615,2.854,0.16,4.22c-0.003,0.01-0.011,0.033-0.016,0.043
	c-0.458,1.385-1.617,2.521-3.048,2.857c-2.417,0.615-4.958-0.82-6.241-2.852c-0.007-0.009-0.02-0.025-0.023-0.035
	c-0.661-1.054-1.093-2.291-1.011-3.543c-0.086-1.625,0.687-3.337,2.121-4.169C124.637,221.924,124.653,221.913,124.663,221.907z"/>
<path fill="#1E7BE0" d="M113.947,221.917c1.13-0.412,2.384-0.479,3.522-0.071c1.083,0.373,1.976,1.223,2.437,2.27
	c0.006,0.011,0.018,0.031,0.021,0.044c1.216,2.927-0.244,6.544-2.976,8.052c-1.273,0.75-2.873,0.896-4.271,0.445
	c-0.011-0.006-0.033-0.014-0.044-0.018c-0.89-0.309-1.659-0.929-2.173-1.716c-0.007-0.008-0.02-0.024-0.023-0.034
	c-0.778-1.176-0.831-2.656-0.632-4.01c0.078-0.313,0.125-0.64,0.285-0.924c0.04-0.068,0.12-0.206,0.16-0.275
	c0.009-0.513,0.416-0.938,0.657-1.375c0.006-0.009,0.019-0.027,0.023-0.037c0.738-1.041,1.767-1.893,2.968-2.336
	C113.915,221.927,113.936,221.92,113.947,221.917z"/>
<path fill="#1E7BE0" d="M135.009,224.736c0.368-0.231,0.833-0.115,1.138,0.166c1.392,1.143,2.459,2.828,2.479,4.668
	c0.074,1.461-0.408,2.943-1.325,4.082c-0.248,0.267-0.638,0.652-1.021,0.402c-0.454-0.236-0.671-0.734-0.879-1.178
	c-0.562-1.288-0.878-2.686-0.942-4.088c-0.119-0.994-0.171-2.012,0.015-2.999C134.519,225.395,134.671,224.975,135.009,224.736z"/>
<path fill="#1E7BE0" d="M106.189,225.059c0.213-0.162,0.474-0.246,0.724-0.332c0.94,0.155,1.042,1.232,1.081,2
	c0.011,1.818-0.092,3.676-0.676,5.412c-0.004,0.01-0.012,0.034-0.016,0.045c-0.28,0.762-0.559,1.571-1.192,2.117
	c-0.304,0.012-0.635,0.001-0.848-0.25c-1.419-1.449-1.872-3.672-1.389-5.611C104.215,227.086,105.066,225.88,106.189,225.059z"/>
<path fill="#1E7BE0" d="M116.845,234.132c1.438-2.081,4.336-2.782,6.669-1.976c0.011,0.004,0.033,0.011,0.044,0.015
	c0.96,0.329,1.851,0.91,2.489,1.704c0.006,0.008,0.019,0.023,0.023,0.033c0.329,0.417,0.588,0.888,0.765,1.391
	c0.003,0.01,0.009,0.03,0.015,0.041c0.447,1.406,0.352,3.04-0.445,4.309c-0.396,0.662-0.95,1.229-1.593,1.656
	c-0.009,0.006-0.026,0.017-0.038,0.023c-0.381,0.244-0.79,0.447-1.217,0.598c-0.01,0.004-0.033,0.012-0.042,0.014
	c-1.412,0.498-2.998,0.447-4.37-0.148c-0.011-0.004-0.031-0.016-0.043-0.02c-2.395-0.976-3.823-3.916-2.867-6.362
	c0.041-0.068,0.122-0.202,0.16-0.271C116.353,234.757,116.678,234.451,116.845,234.132z"/>
<path fill="#1E7BE0" d="M133.329,233.881c0.686-0.296,1.541-0.091,2.007,0.496c0.605,0.77,0.769,1.797,0.725,2.751
	c0.078,1.351-0.303,2.705-1.013,3.849c-0.006,0.013-0.021,0.03-0.024,0.039c-0.712,1.135-1.744,2.073-2.957,2.646
	c-0.011,0.004-0.028,0.014-0.041,0.021c-0.979,0.438-2.096,0.691-3.163,0.478c-0.813-0.205-1.31-1.005-1.311-1.813
	c-0.089-1.267,0.223-2.527,0.697-3.693c0.005-0.012,0.015-0.03,0.019-0.043c0.947-2.159,2.804-3.893,5.017-4.707
	C133.293,233.895,133.318,233.886,133.329,233.881z"/>
<path fill="#1E7BE0" d="M106.792,236.029c0.177-0.666,0.657-1.35,1.388-1.45c1.059-0.211,2.104,0.301,2.991,0.829
	c1.529,0.969,2.743,2.438,3.377,4.137c0.004,0.012,0.013,0.033,0.016,0.044c0.036,0.106,0.108,0.323,0.146,0.431
	c0.003,0.01,0.011,0.033,0.014,0.045c0.283,0.785,0.252,1.625,0.215,2.445c-0.132,0.543-0.41,1.117-0.948,1.354
	c-0.471,0.29-1.035,0.188-1.56,0.198C108.742,243.639,105.956,239.636,106.792,236.029z"/>
<path fill="#AD4932" d="M104.623,236.689c0.008,0.021,0.023,0.063,0.031,0.084C104.648,236.752,104.631,236.71,104.623,236.689z"/>
<path fill="#1E7BE0" d="M118.741,244.107c2.437-0.567,5.115-0.53,7.394,0.603c0.542,0.235,0.979,0.961,0.564,1.499
	c-1.523,2.316-4.689,3.479-7.323,2.552c-0.066-0.038-0.199-0.12-0.268-0.161c-0.233,0.077-0.431-0.104-0.635-0.182
	c-1.039-0.516-2.004-1.271-2.565-2.305c-0.118-0.424,0.15-0.844,0.508-1.057C117.129,244.609,117.928,244.313,118.741,244.107z"/>
<path fill="#AD4932" d="M110.588,245.37c0.021,0.011,0.061,0.034,0.08,0.046C110.649,245.404,110.609,245.381,110.588,245.37z"/>
<path fill="#AD4932" d="M113.741,247.102c0.019,0.014,0.058,0.034,0.077,0.047C113.799,247.136,113.76,247.114,113.741,247.102z"/>
<path fill="#AD4932" d="M114.531,247.57c0.019,0.014,0.056,0.035,0.072,0.047C114.584,247.605,114.547,247.583,114.531,247.57z"/>
<path fill="#AD4932" d="M117.515,249.615c0.021,0.011,0.063,0.033,0.085,0.045C117.578,249.648,117.536,249.626,117.515,249.615z"/>
<text transform="matrix(1 0 0 1 247.7229 150.5566)" fill="#1E7BE0" font-family="'RefrigeratorLight'" font-size="49.9441">SecBerry</text>
<text transform="matrix(1 0 0 1 247.7229 150.5566)" fill="none" stroke="#1E7BE0" stroke-width="3" stroke-miterlimit="10" font-family="'RefrigeratorLight'" font-size="49.9441">SecBerry</text>
</svg>
